# xmcd
#
# Track frame offsets:
#	150
#	16646
#	39392
#	68993
#
# Disc length: 1174 seconds
#
# Revision: 1
# Processed by: cddbd v1.5.2PL0 Copyright (c) Steve Scherf et al.
# Submitted via: audiograbber 1.83.01
#
DISCID=26049404
DTITLE=Sound Of R.E.L.S. - I've Got [CDM)
DYEAR=1998
DGENRE=Dance
TTITLE0=I've Got
TTITLE1=I've Got (Sound Electrified 129)
TTITLE2=I've Got (Clubbers Delight Electrified)
TTITLE3=I've Got (Energy Boom Mix)
EXTD=TR.
EXTT0=
EXTT1=
EXTT2=
EXTT3=
PLAYORDER=
